<?xml version="1.0" encoding="UTF-8"?>
<svg width="22px" height="22px" viewBox="0 0 22 22" version="1.1" xmlns="http://www.w3.org/2000/svg" xmlns:xlink="http://www.w3.org/1999/xlink">
    <!-- Generator: Sketch 54.1 (76490) - https://sketchapp.com -->
    <title>Shape</title>
    <desc>Created with Sketch.</desc>
    <g id="Page-1" stroke="none" stroke-width="1" fill="none" fill-rule="evenodd">
        <g id="Home" transform="translate(-61.000000, -739.000000)" fill="#FF9786" fill-rule="nonzero">
            <g id="tab-bar" transform="translate(0.000000, 729.000000)">
                <g id="tab-items" transform="translate(35.000000, 10.000000)">
                    <g id="dashboard">
                        <g id="icon" transform="translate(26.000000, 0.000000)">
                            <path d="M11,0 C4.92043011,0 0,4.92043011 0,11 C0,17.0795699 4.92043011,22 11,22 C17.0795699,22 22,17.0795699 22,11 C22,4.92043011 17.0795699,0 11,0 Z M10,3.94488189 C10,3.42519685 10.45,3 11,3 C11.55,3 12,3.42519685 12,3.94488189 L12,5.05511811 C12,5.57480315 11.55,6 11,6 C10.45,6 10,5.57480315 10,5.05511811 L10,3.94488189 L10,3.94488189 Z M5.05511811,12 L3.94488189,12 C3.42519685,12 3,11.55 3,11 C3,10.45 3.42519685,10 3.94488189,10 L5.05511811,10 C5.57480315,10 6,10.45 6,11 C6,11.55 5.57480315,12 5.05511811,12 Z M7.68421053,7.68119948 C7.26315789,8.10177979 6.60526316,8.10177979 6.18421053,7.70748574 L5.31578947,6.81375259 C4.89473684,6.39317228 4.89473684,5.73601554 5.31578947,5.31543523 C5.73684211,4.89485492 6.39473684,4.89485492 6.81578947,5.31543523 L7.68421053,6.18288212 C8.10526316,6.60346243 8.10526316,7.26061917 7.68421053,7.68119948 Z M11.978511,13.7387863 C11.5995307,13.9287599 11.1968641,14 10.7705113,14 C9.11247249,14 7.80972771,12.5514512 8.02290413,10.8416887 C8.14133547,9.98680739 8.63874712,9.22691293 9.39670772,8.7994723 C10.2257271,8.32453826 11.1731779,8.32453826 11.9548247,8.70448549 L15.3656475,5.28496042 C15.7446278,4.90501319 16.3367845,4.90501319 16.7157648,5.28496042 C17.0947451,5.66490765 17.0947451,6.2585752 16.7157648,6.63852243 L13.2812558,10.0343008 C13.9444713,11.4116095 13.3523146,13.0738786 11.978511,13.7387863 Z M18.0551181,12 L16.9448819,12 C16.4251969,12 16,11.55 16,11 C16,10.45 16.4251969,10 16.9448819,10 L18.0551181,10 C18.5748031,10 19,10.45 19,11 C19,11.55 18.5748031,12 18.0551181,12 Z" id="Shape"></path>
                        </g>
                    </g>
                </g>
            </g>
        </g>
    </g>
</svg>