<?xml version="1.0" encoding="UTF-8"?>
<svg width="26px" height="22px" viewBox="0 0 26 22" version="1.1" xmlns="http://www.w3.org/2000/svg" xmlns:xlink="http://www.w3.org/1999/xlink">
    <!-- Generator: Sketch 54.1 (76490) - https://sketchapp.com -->
    <title>clock</title>
    <desc>Created with Sketch.</desc>
    <g id="Page-1" stroke="none" stroke-width="1" fill="none" fill-rule="evenodd">
        <g id="Home" transform="translate(-289.000000, -739.000000)" fill="#CCCCCC" fill-rule="nonzero">
            <g id="cpanel" transform="translate(268.000000, 739.000000)">
                <g id="clock" transform="translate(21.000000, 0.000000)">
                    <path d="M7.68094488,17.2083187 L6.48167171,18.2878938 C6.86354028,18.7247436 7.27838886,19.1305497 7.72251969,19.5016028 L8.73630527,18.2415566 C8.35818443,17.9260878 8.0052983,17.5805912 7.68094488,17.2083187 Z" id="Path"></path>
                    <path d="M6.10509994,14.6931039 L4.63559055,15.3345081 C4.86280285,15.872873 5.13258934,16.3915751 5.44230164,16.8855843 L6.79108419,16.0141201 C6.52804361,15.5931224 6.29863265,15.1513949 6.10509994,14.6931039 Z" id="Path"></path>
                    <path d="M19.9676484,1.51220785 C18.3236448,0.543039261 16.457126,0.0323648961 14.5567777,0.0318568129 C9.15180345,0.0406974596 4.58542096,4.11059584 3.86885524,9.557806 L1.13051484,6.77351039 L0,7.92299769 L4.56283465,12.5624065 L9.12566929,7.92299769 L7.99515445,6.77351039 L5.52225318,9.28466051 C6.46183374,4.21612471 11.264573,0.881778291 16.2494518,1.83712702 C21.2343307,2.79247575 24.5136432,7.67581524 23.5740627,12.7443002 C22.6344821,17.8127852 17.8317429,21.1472333 12.846864,20.1918337 C11.8250333,19.9960185 10.8433283,19.6251686 9.94357359,19.0950855 L9.14006057,20.5006467 C14.2970351,23.5407621 20.9014325,21.754545 23.8913704,16.5110254 C26.8813583,11.2675566 25.124623,4.55232333 19.9676484,1.51220785 Z" id="Path"></path>
                    <polygon id="Path" points="13.3575045 3.69005543 13.3575045 12.6323187 16.8753725 15.3149977 17.834791 14.0143048 14.9565354 11.8193857 14.9565354 3.69005543"></polygon>
                </g>
            </g>
        </g>
    </g>
</svg>