<?xml version="1.0" encoding="UTF-8"?>
<svg width="25px" height="25px" viewBox="0 0 25 25" version="1.1" xmlns="http://www.w3.org/2000/svg" xmlns:xlink="http://www.w3.org/1999/xlink">
    <!-- Generator: Sketch 54 (76480) - https://sketchapp.com -->
    <title>close</title>
    <desc>Created with Sketch.</desc>
    <g id="Page-1" stroke="none" stroke-width="1" fill="none" fill-rule="evenodd">
        <g id="Nouveau-Copy-2" transform="translate(-320.000000, -30.000000)" fill="#FFFFFF" fill-rule="nonzero">
            <g id="close" transform="translate(320.000000, 30.000000)">
                <g id="close-(1)" transform="translate(12.500000, 12.500000) scale(-1, 1) translate(-12.500000, -12.500000) ">
                    <path d="M24.704248,0.295788718 C24.309863,-0.0985962395 23.6704584,-0.0985962395 23.2760734,0.295788718 L0.295788718,23.2760245 C-0.0985962395,23.6704095 -0.0985962395,24.3098141 0.295788718,24.7041991 C0.492956784,24.9014648 0.751453005,25 1.0099004,25 C1.26834779,25 1.52679518,24.9014159 1.72401207,24.7041502 L24.704248,1.72391442 C25.0985841,1.32957829 25.0985841,0.690173677 24.704248,0.295788718 Z" id="Path"></path>
                    <path d="M24.7042414,23.2760245 L1.72391736,0.295788718 C1.32958056,-0.0985962395 0.690126027,-0.0985962395 0.295789225,0.295788718 C-0.0985964081,0.690124848 -0.0985964081,1.32952946 0.295789225,1.72391442 L23.2761132,24.7041991 C23.4732816,24.9014159 23.7317782,25 23.9902261,25 C24.2486739,25 24.5071705,24.9014159 24.7042902,24.704248 C25.0985782,24.3098141 25.0985782,23.6704095 24.7042414,23.2760245 Z" id="Path"></path>
                </g>
            </g>
        </g>
    </g>
</svg>