<?xml version="1.0" encoding="UTF-8"?>
<svg width="83px" height="82px" viewBox="0 0 83 82" version="1.1" xmlns="http://www.w3.org/2000/svg" xmlns:xlink="http://www.w3.org/1999/xlink">
    <!-- Generator: Sketch 54 (76480) - https://sketchapp.com -->
    <title>icons8-checked</title>
    <desc>Created with Sketch.</desc>
    <g id="Page-1" stroke="none" stroke-width="1" fill="none" fill-rule="evenodd">
        <g id="Nouveau-Copy-2" transform="translate(-146.000000, -243.000000)" fill="#FFFFFF" fill-rule="nonzero">
            <g id="Group-2" transform="translate(52.000000, 243.000000)">
                <g id="icons8-checked" transform="translate(94.800000, 0.000000)">
                    <path d="M40.8,0 C18.2055281,0 0,18.2055281 0,40.8 C0,63.3944719 18.2055281,81.6 40.8,81.6 C63.3944719,81.6 81.6,63.3944719 81.6,40.8 C81.6,36.4110593 81.0115385,32.0343742 79.4423077,27.9519231 L74.3423077,32.9538462 C74.9675489,35.4670665 75.3230769,37.98029 75.3230769,40.8 C75.3230769,59.9495208 59.9495208,75.3230769 40.8,75.3230769 C21.6504823,75.3230769 6.27692308,59.9495208 6.27692308,40.8 C6.27692308,21.6504823 21.6504823,6.27692308 40.8,6.27692308 C50.2153846,6.27692308 58.6745208,10.028367 64.6326923,15.9865385 L69.0461538,11.5730769 C61.8252412,4.35216425 51.7846154,0 40.8,0 Z M76.2057692,13.4365385 L40.8,48.8423077 L27.3634615,35.4057692 L22.8519231,39.9173077 L38.5442308,55.6096154 L40.8,57.7673077 L43.0557692,55.6096154 L80.7173077,17.9480769 L76.2057692,13.4365385 Z" id="Shape"></path>
                </g>
            </g>
        </g>
    </g>
</svg>