<?xml version="1.0" encoding="UTF-8"?>
<svg width="17px" height="17px" viewBox="0 0 17 17" version="1.1" xmlns="http://www.w3.org/2000/svg" xmlns:xlink="http://www.w3.org/1999/xlink">
    <!-- Generator: Sketch 54 (76480) - https://sketchapp.com -->
    <title>Shape</title>
    <desc>Created with Sketch.</desc>
    <g id="Page-1" stroke="none" stroke-width="1" fill="none" fill-rule="evenodd" opacity="0.600000024">
        <g id="Home" transform="translate(-48.000000, -137.000000)" fill="#000000" fill-rule="nonzero">
            <g id="Group" transform="translate(20.000000, 120.000000)">
                <path d="M35.0790509,17 C31.1777839,17 28,20.1777839 28,24.0790509 C28,27.980318 31.1777839,31.1581019 35.0790509,31.1581019 C36.7755512,31.1581019 38.3335632,30.5556647 39.5546152,29.5556369 L43.7813063,33.782328 C43.9588606,33.9672617 44.2225202,34.041758 44.4705999,33.977086 C44.7186796,33.9124141 44.9124141,33.7186796 44.977086,33.4705999 C45.041758,33.2225202 44.9672617,32.9588606 44.782328,32.7813063 L40.5556369,28.5546152 C41.5556647,27.3335632 42.1581019,25.7755512 42.1581019,24.0790509 C42.1581019,20.1777839 38.980318,17 35.0790509,17 Z M35.0790509,18.4158102 C38.2151576,18.4158102 40.7422917,20.9429446 40.7422917,24.0790509 C40.7422917,27.2151576 38.2151576,29.7422917 35.0790509,29.7422917 C31.9429446,29.7422917 29.4158102,27.2151576 29.4158102,24.0790509 C29.4158102,20.9429446 31.9429446,18.4158102 35.0790509,18.4158102 Z" id="Shape"></path>
            </g>
        </g>
    </g>
</svg>