<?xml version="1.0" encoding="utf-8"?>
<!-- Svg Vector Icons : http://www.onlinewebfonts.com/icon -->
<!DOCTYPE svg PUBLIC "-//W3C//DTD SVG 1.1//EN" "http://www.w3.org/Graphics/SVG/1.1/DTD/svg11.dtd">
<svg fill="white" version="1.1" xmlns="http://www.w3.org/2000/svg" xmlns:xlink="http://www.w3.org/1999/xlink" x="0px" y="0px" viewBox="0 0 1000 1000" width="140px" height="140px" enable-background="new 0 0 1000 1000" xml:space="preserve">
<metadata> Svg Vector Icons : http://www.onlinewebfonts.com/icon </metadata>
<g><path d="M500,55.9c244.8,0,444.1,199.2,444.1,444.1c0,244.9-199.2,444.1-444.1,444.1C255.2,944.1,55.9,744.9,55.9,500C55.9,255.1,255.2,55.9,500,55.9 M500,10C229.4,10,10,229.4,10,500c0,270.6,219.4,490,490,490c270.6,0,490-219.4,490-490C990,229.4,770.6,10,500,10L500,10z"/><path d="M716.6,673.2L543.3,500l173.2-173.2c11.9-12,11.9-31.3,0-43.3c-12-12-31.4-12-43.3,0L500,456.7L326.8,283.5c-12-12-31.4-12-43.3,0c-11.9,12-11.9,31.4,0,43.3L456.7,500L283.4,673.2c-11.9,12-11.9,31.4,0,43.3c12,12,31.4,12,43.3,0L500,543.3l173.2,173.2c12,12,31.4,12,43.3,0C728.5,704.6,728.5,685.2,716.6,673.2z"/></g>
</svg>